<?xml version="1.0" standalone="no"?>
<!DOCTYPE svg PUBLIC "-//W3C//DTD SVG 20010904//EN"
 "http://www.w3.org/TR/2001/REC-SVG-20010904/DTD/svg10.dtd">
<svg version="1.0" xmlns="http://www.w3.org/2000/svg"
 width="800.000000pt" height="794.000000pt" viewBox="0 0 800.000000 794.000000"
 preserveAspectRatio="xMidYMid meet">
<metadata>
Created by potrace 1.16, written by Peter Selinger 2001-2019
</metadata>
<g transform="translate(0.000000,794.000000) scale(0.100000,-0.100000)"
fill="#000000" stroke="none">
<path d="M4082 7923 c2 -9 17 -21 33 -26 61 -19 68 -34 61 -117 -7 -91 -21
-217 -36 -328 -8 -60 -8 -88 0 -97 6 -7 42 -15 83 -18 40 -3 85 -9 100 -13 25
-6 28 -4 25 11 -2 11 -20 24 -45 32 -25 9 -51 27 -64 44 -19 27 -20 39 -15
142 9 203 19 228 67 165 13 -17 44 -57 69 -89 25 -31 70 -92 100 -134 30 -42
60 -82 65 -88 6 -7 22 -28 35 -47 65 -93 92 -101 104 -28 15 86 24 135 50 258
61 292 63 263 -16 278 -35 7 -78 17 -97 22 -63 17 -66 -9 -4 -35 52 -22 62
-41 63 -115 0 -60 -23 -211 -36 -231 -11 -18 -22 -8 -75 64 -29 39 -56 74 -59
77 -3 3 -17 21 -30 40 -14 19 -57 78 -98 130 -69 90 -76 95 -125 107 -29 7
-76 12 -105 13 -45 0 -53 -3 -50 -17z"/>
<path d="M3525 7910 c-11 -17 5 -30 36 -30 49 0 57 -34 24 -106 -15 -32 -43
-95 -62 -139 -20 -44 -45 -102 -58 -130 -12 -27 -28 -68 -36 -90 -7 -22 -17
-44 -21 -49 -4 -6 -8 -23 -8 -38 l0 -28 93 0 c50 0 98 4 106 9 19 12 5 31 -22
31 -29 0 -67 27 -67 47 0 13 26 79 37 92 2 3 57 6 122 8 l118 3 24 -32 c13
-18 38 -48 56 -68 l31 -35 89 0 c103 0 111 10 41 54 -54 35 -128 139 -242 344
-69 125 -80 143 -95 154 -19 15 -157 17 -166 3z m185 -262 c22 -45 37 -85 33
-89 -10 -10 -151 -14 -159 -6 -4 4 4 30 16 59 13 29 29 68 37 86 7 17 18 32
23 32 6 0 29 -37 50 -82z"/>
<path d="M2815 7770 c-3 -5 -16 -10 -28 -10 -57 -2 -125 -63 -72 -66 11 -1 26
-2 33 -3 15 -1 16 -87 3 -193 -5 -40 -12 -129 -16 -198 -3 -68 -8 -141 -12
-162 -3 -21 -2 -38 3 -38 28 0 224 81 224 92 0 5 -25 8 -55 8 -59 0 -56 -3
-68 75 -6 35 7 65 28 65 9 0 23 4 33 10 9 5 45 19 79 30 74 25 76 24 158 -59
56 -58 62 -61 107 -61 65 0 129 21 126 40 -2 8 -15 16 -30 18 -20 2 -63 40
-155 134 -288 296 -321 328 -336 328 -9 0 -19 -4 -22 -10z m114 -237 c39 -48
50 -68 42 -76 -14 -14 -113 -46 -123 -40 -5 2 -8 41 -8 87 0 120 11 124 89 29z"/>
<path d="M5140 7771 c0 -5 10 -15 23 -24 18 -12 22 -23 21 -61 0 -26 -6 -57
-12 -69 -6 -12 -18 -44 -27 -72 -9 -27 -23 -63 -30 -80 -36 -78 -96 -278 -87
-287 9 -9 129 -45 185 -55 35 -7 35 8 -2 30 -45 27 -55 64 -36 132 30 100 79
125 112 55 29 -64 53 -120 53 -125 0 -3 18 -43 40 -89 41 -88 59 -106 142
-144 85 -39 99 -26 44 41 -33 41 -83 132 -107 192 -66 172 -72 204 -39 212 50
13 265 129 265 143 0 16 -139 68 -184 69 l-24 1 23 -25 c26 -28 22 -49 -15
-69 -11 -6 -24 -16 -30 -21 -7 -6 -41 -25 -76 -43 -73 -37 -139 -52 -139 -31
0 12 32 112 50 154 24 60 31 85 25 95 -4 6 -32 23 -63 36 -32 14 -65 30 -74
35 -22 11 -38 12 -38 0z"/>
<path d="M2196 7516 c-44 -23 -84 -49 -89 -58 -10 -16 0 -159 24 -322 13 -93
5 -99 -66 -52 -31 20 -71 45 -88 55 -18 10 -72 42 -120 70 -49 28 -91 51 -93
51 -2 0 -38 -23 -79 -51 -73 -51 -100 -89 -52 -75 52 16 52 17 106 -106 12
-26 21 -52 21 -58 0 -6 4 -18 9 -28 19 -36 51 -112 51 -122 0 -6 4 -18 9 -28
4 -9 22 -47 40 -84 17 -38 36 -68 41 -68 13 0 156 96 165 111 12 19 -2 20 -45
3 -40 -16 -43 -16 -67 2 -32 24 -89 130 -133 246 -35 91 -34 112 2 89 11 -7
36 -21 54 -32 109 -62 222 -130 282 -171 56 -39 75 -32 68 24 -3 24 -10 90
-16 148 -5 58 -14 143 -19 190 -5 47 -5 89 -1 93 10 11 93 -79 200 -218 8 -10
38 -43 65 -72 l50 -53 40 12 c22 6 51 19 65 28 14 9 33 20 43 23 9 4 17 13 17
21 0 11 -11 14 -43 13 -67 -3 -113 39 -289 264 -14 19 -40 51 -57 73 -36 45
-37 53 -11 86 41 53 21 52 -84 -4z"/>
<path d="M5800 7511 c0 -5 14 -21 30 -34 19 -16 30 -35 30 -51 0 -33 -33 -104
-80 -176 -86 -131 -120 -198 -120 -239 0 -35 41 -118 75 -154 37 -39 94 -73
155 -93 36 -12 54 -24 61 -40 4 -13 13 -24 19 -24 12 0 95 -55 118 -77 13 -13
42 -18 42 -7 0 3 -11 20 -25 38 -14 18 -25 39 -25 47 0 8 51 81 113 163 106
142 207 279 207 283 0 6 -120 93 -128 93 -5 0 -15 7 -22 15 -30 36 -40 8 -12
-33 42 -60 36 -75 -113 -264 -25 -32 -45 -60 -45 -64 0 -4 -18 -25 -41 -47
-38 -38 -42 -39 -86 -33 -26 3 -56 15 -68 26 -12 11 -25 20 -31 20 -20 1 -74
87 -74 120 0 36 44 129 93 198 18 24 37 51 42 60 95 149 100 165 63 199 -27
25 -141 83 -163 83 -8 0 -15 -4 -15 -9z"/>
<path d="M6530 7038 c0 -7 7 -22 15 -32 31 -41 19 -62 -127 -228 -193 -218
-208 -235 -208 -243 0 -11 287 -295 298 -295 21 0 192 121 192 135 0 26 -24
27 -95 4 -66 -21 -69 -21 -123 -4 -55 17 -142 89 -142 118 0 8 75 92 168 187
92 95 174 183 182 196 14 23 12 26 -60 99 -72 72 -100 89 -100 63z"/>
<path d="M1367 6944 c-37 -30 -67 -58 -67 -60 0 -3 26 -2 58 1 80 9 128 -18
209 -115 92 -111 91 -114 -64 -106 -71 4 -189 9 -264 12 l-137 6 -42 -38 c-43
-39 -100 -115 -100 -133 0 -18 20 -12 52 14 16 14 39 25 50 25 12 0 82 -64
191 -175 94 -96 176 -175 182 -175 15 0 145 132 145 148 0 18 -21 14 -50 -8
-49 -38 -70 -29 -199 92 -65 62 -117 117 -114 122 4 5 69 5 162 0 200 -12 438
-11 450 1 6 6 -17 38 -61 85 -70 75 -173 195 -258 302 -25 32 -52 57 -60 58
-9 0 -46 -25 -83 -56z"/>
<path d="M3911 6986 c-9 -11 -31 -106 -31 -137 0 -4 -19 -9 -41 -13 -65 -10
-79 -22 -79 -64 0 -20 6 -55 14 -76 17 -48 11 -73 -19 -80 -39 -10 -55 -34
-55 -81 0 -50 23 -82 79 -112 46 -25 48 -36 12 -72 -20 -20 -31 -42 -31 -60 0
-24 10 -34 60 -65 32 -20 62 -41 65 -46 3 -5 -1 -25 -10 -45 -15 -37 -14 -37
24 -91 49 -68 68 -138 51 -189 -6 -19 -17 -35 -25 -35 -16 0 -45 43 -45 68 0
37 -45 127 -80 160 -19 18 -61 51 -92 73 -31 21 -69 55 -84 75 -27 35 -27 35
-47 16 -27 -28 -15 -74 35 -128 l41 -44 -31 0 c-17 0 -34 5 -37 10 -11 18 -25
0 -25 -34 0 -33 31 -71 78 -95 25 -13 30 -41 7 -41 -8 0 -15 -6 -15 -13 0 -26
33 -59 84 -83 29 -13 69 -38 90 -55 32 -27 37 -36 34 -68 -3 -31 -7 -36 -30
-39 -41 -5 -207 55 -267 96 -32 22 -63 55 -78 82 -26 45 -27 67 -7 168 4 20 1
44 -10 66 -20 43 -21 36 14 116 35 80 37 104 10 128 -11 9 -29 25 -41 35 -24
22 -19 64 14 111 30 42 47 98 36 118 -5 9 -24 21 -42 27 -42 14 -57 45 -57
115 0 67 -16 84 -60 66 -41 -17 -52 -10 -79 46 -13 27 -27 56 -31 64 -10 19
-92 19 -114 1 -11 -9 -16 -30 -16 -65 0 -60 -13 -83 -54 -94 -42 -11 -70 -51
-58 -83 5 -13 12 -46 16 -72 7 -46 6 -49 -28 -81 -48 -44 -47 -71 7 -136 86
-105 79 -89 60 -142 l-18 -47 29 -30 c16 -17 49 -37 74 -46 50 -17 92 -50 93
-74 1 -27 34 -75 60 -88 71 -36 121 -108 99 -143 -8 -13 -18 -12 -82 4 -67 17
-111 39 -146 73 -7 7 -27 43 -44 80 -37 82 -54 103 -85 103 -40 0 -59 16 -72
62 -7 24 -17 59 -22 78 -16 56 -30 77 -57 89 -17 8 -28 9 -36 1 -5 -5 -24 -10
-41 -10 -35 0 -43 12 -66 90 -19 67 -26 72 -78 65 -36 -4 -53 -1 -78 15 -18
11 -33 24 -33 30 0 21 -44 28 -79 14 -48 -20 -95 -18 -116 6 -28 31 -58 25
-99 -20 -20 -22 -36 -46 -36 -54 0 -7 16 -33 35 -57 40 -51 42 -62 15 -107
-11 -18 -20 -37 -20 -42 0 -5 22 -31 50 -58 46 -45 50 -53 50 -95 0 -62 27
-80 129 -87 73 -5 76 -6 89 -35 36 -83 31 -80 107 -78 39 0 94 3 123 5 48 3
55 0 83 -29 34 -38 68 -49 97 -34 40 21 102 13 178 -25 83 -41 103 -59 86 -76
-16 -16 -133 -14 -172 2 -23 10 -34 10 -43 1 -25 -25 -119 2 -171 50 -35 33
-64 35 -95 5 -30 -29 -75 -34 -100 -12 -34 30 -66 29 -102 -3 -36 -34 -60 -37
-121 -19 -37 11 -41 10 -65 -16 -23 -25 -29 -27 -77 -21 -50 7 -54 5 -75 -21
-46 -59 -36 -97 31 -111 32 -6 53 -28 62 -65 8 -33 51 -58 99 -58 37 0 51 -11
61 -50 11 -47 22 -54 80 -54 31 0 61 5 68 12 19 19 50 14 80 -15 27 -26 27
-26 71 -9 24 9 56 30 72 46 31 33 50 36 91 18 25 -12 29 -10 73 39 28 31 60
55 83 63 28 8 48 26 78 69 47 67 84 91 137 90 50 -1 144 -32 157 -51 12 -20
-6 -64 -41 -102 -22 -24 -31 -27 -67 -23 -55 6 -138 -18 -166 -48 -28 -30 -25
-35 78 -114 170 -128 197 -137 220 -66 16 48 9 107 -19 152 -18 30 -19 34 -4
56 8 13 27 29 43 37 15 7 35 16 44 21 42 21 104 0 167 -57 76 -68 88 -99 102
-275 14 -178 6 -236 -38 -264 -22 -15 -28 -15 -56 -1 -60 28 -92 38 -171 52
-85 15 -142 10 -306 -27 -121 -27 -190 -26 -223 5 -14 13 -28 35 -31 48 -29
149 -34 161 -61 138 -23 -19 -48 -7 -60 30 -10 29 -17 36 -44 38 -26 3 -34 -1
-38 -17 -7 -28 -29 -26 -69 4 -56 43 -72 30 -49 -39 9 -25 13 -56 10 -69 -5
-17 1 -30 21 -50 15 -15 29 -27 33 -27 3 0 19 -20 34 -45 27 -41 73 -75 104
-75 7 0 13 -4 13 -9 0 -16 -25 -28 -70 -35 -25 -3 -62 -9 -82 -12 -30 -5 -47
-1 -82 20 -41 24 -46 31 -56 84 -17 82 -17 81 -44 92 -32 12 -35 22 -29 111 6
85 5 87 -62 104 -36 10 -41 15 -48 50 -14 62 -21 70 -65 73 -36 3 -44 8 -64
43 -20 37 -25 39 -67 39 -39 0 -50 5 -71 30 -46 55 -130 28 -117 -37 19 -91
19 -94 1 -114 -20 -22 -19 -24 26 -96 13 -20 12 -25 -8 -46 -12 -13 -22 -30
-22 -38 0 -19 41 -59 61 -60 8 0 28 -8 44 -18 25 -15 30 -24 30 -59 1 -64 24
-82 106 -82 66 0 69 -1 108 -40 37 -38 42 -40 101 -40 65 0 123 -21 114 -43
-12 -32 -299 -49 -385 -23 -76 23 -105 40 -176 102 -42 36 -43 38 -43 100 0
59 -2 65 -30 86 -35 26 -37 49 -11 105 27 54 12 113 -29 113 -9 0 -25 9 -35
20 -18 20 -18 22 -1 68 10 26 21 57 23 70 7 28 -22 62 -52 62 -36 0 -45 20
-45 96 0 79 -5 88 -61 98 -38 7 -59 35 -59 81 0 41 -27 58 -83 52 -26 -2 -55
-11 -63 -19 -8 -7 -18 -41 -22 -73 -7 -57 -9 -61 -45 -78 -42 -20 -47 -43 -22
-112 22 -60 19 -81 -15 -105 -24 -17 -30 -29 -30 -59 0 -47 47 -124 89 -146
30 -15 31 -18 31 -79 0 -52 4 -66 23 -83 27 -24 84 -53 106 -53 8 0 35 -8 59
-17 36 -13 48 -25 62 -58 16 -36 24 -43 71 -58 64 -21 149 -74 149 -93 0 -27
-109 -18 -190 16 -74 31 -124 38 -135 20 -12 -19 -53 -10 -111 25 -32 19 -65
35 -73 35 -8 0 -32 -12 -54 -27 l-38 -27 -60 21 c-53 18 -66 20 -102 9 -38
-11 -42 -15 -45 -46 -5 -47 -18 -60 -61 -60 -52 0 -81 -23 -81 -65 0 -34 -8
-45 -89 -113 l-34 -29 18 -46 c26 -68 40 -78 98 -65 45 9 51 8 88 -18 l39 -27
46 24 46 23 27 -32 c33 -40 60 -41 116 -2 44 30 88 39 100 20 3 -5 19 -10 34
-10 30 0 58 26 81 75 27 59 60 85 105 85 33 0 47 6 71 31 51 54 134 89 214 89
25 0 88 -12 140 -26 52 -14 126 -32 163 -39 37 -7 71 -16 74 -19 4 -4 -1 -14
-10 -24 -18 -17 -20 -17 -271 -25 -87 -3 -91 -4 -107 -31 -26 -43 -37 -47
-121 -40 -93 8 -108 -1 -108 -58 0 -38 -2 -40 -57 -64 -64 -29 -82 -47 -83
-86 0 -21 -8 -30 -40 -44 -35 -15 -40 -22 -40 -50 0 -21 10 -42 29 -63 31 -33
45 -37 87 -21 21 8 33 6 61 -10 43 -25 73 -25 106 0 33 26 50 25 97 -6 23 -16
46 -23 57 -20 10 4 38 33 61 66 l44 60 53 0 c47 0 56 4 78 30 14 16 32 49 41
72 12 31 27 49 54 63 38 20 71 72 72 111 0 12 15 43 33 70 26 40 42 51 87 67
30 10 84 20 120 20 l65 2 -2 -30 c-3 -40 -42 -72 -97 -80 -53 -8 -99 -35 -122
-70 -16 -25 -16 -27 5 -49 40 -43 119 -73 246 -94 63 -10 72 -8 91 29 17 33
11 49 -38 109 -51 63 -30 135 55 184 23 13 87 35 142 49 55 14 125 32 155 41
46 12 129 20 178 17 22 -2 12 -27 -25 -63 -41 -38 -126 -98 -140 -98 -21 0
-83 -64 -91 -93 -6 -23 -18 -37 -45 -49 -20 -10 -54 -26 -74 -36 -36 -17 -38
-20 -39 -67 -1 -70 0 -69 -36 -84 -69 -29 -85 -62 -48 -96 26 -23 26 -72 0
-105 -27 -35 -25 -56 10 -77 29 -16 30 -21 30 -84 0 -73 7 -85 58 -95 26 -5
36 -1 64 26 27 27 41 33 80 35 54 2 78 18 78 50 0 31 31 55 72 55 54 0 68 23
68 114 0 72 2 77 25 88 35 16 39 38 15 93 -26 61 -28 106 -5 141 16 25 16 34
5 95 -6 38 -9 81 -5 97 10 47 73 100 139 117 53 14 64 14 112 0 75 -22 134
-69 166 -135 l27 -55 1 -265 c0 -316 -12 -385 -73 -415 -36 -18 -81 -19 -158
-3 -46 9 -78 9 -156 -2 -149 -20 -185 -34 -431 -161 l-63 -32 -53 16 c-79 25
-116 55 -151 120 -19 36 -45 69 -69 85 -21 15 -50 47 -63 72 -14 25 -33 54
-44 65 -19 19 -19 19 -55 0 -31 -16 -38 -17 -57 -5 -106 67 -117 72 -140 66
-13 -3 -29 -17 -37 -31 -15 -29 -60 -34 -117 -13 -39 14 -66 3 -71 -30 -4 -25
-22 -34 -92 -41 -48 -5 -57 -10 -68 -34 -11 -23 -11 -34 -2 -58 7 -16 18 -29
25 -29 29 0 78 -35 91 -65 15 -36 30 -45 79 -45 37 0 65 -22 65 -50 0 -11 11
-27 25 -36 23 -15 29 -15 74 0 67 22 73 21 96 -14 25 -37 59 -39 112 -8 28 16
57 23 108 24 39 2 92 6 118 9 87 13 141 -33 83 -70 -13 -9 -46 -24 -75 -34
-28 -10 -54 -21 -58 -24 -3 -4 -15 -7 -25 -7 -10 0 -49 -10 -86 -22 -58 -20
-88 -23 -217 -22 -160 0 -207 9 -309 59 -111 55 -184 130 -186 192 0 12 -9 42
-19 67 -18 41 -23 45 -58 48 l-38 3 -15 67 c-13 60 -47 118 -67 118 -5 0 -22
-4 -39 -9 -45 -13 -64 2 -64 50 0 22 -7 55 -14 74 -13 31 -20 35 -50 35 -19 0
-38 -4 -41 -10 -15 -24 -62 -10 -99 30 -42 45 -55 49 -81 20 -25 -28 -64 -24
-105 10 -19 17 -41 30 -49 30 -18 0 -81 -68 -81 -87 0 -7 9 -28 20 -48 22 -38
26 -80 10 -90 -22 -13 -9 -52 30 -90 45 -44 49 -64 19 -104 -17 -23 -19 -32
-10 -50 15 -27 62 -51 99 -51 16 0 43 -5 61 -11 27 -10 31 -15 31 -48 0 -26 7
-44 23 -59 21 -20 34 -22 128 -22 104 0 106 0 134 -30 28 -29 32 -30 119 -30
138 -1 265 -40 333 -103 38 -35 30 -54 -27 -61 -56 -7 -92 -1 -135 26 -33 20
-70 24 -80 8 -11 -17 -42 -11 -103 20 -74 37 -91 37 -127 0 -31 -33 -59 -37
-111 -18 -44 16 -74 1 -88 -42 -9 -30 -18 -37 -61 -51 -34 -10 -55 -24 -66
-44 -12 -18 -34 -34 -66 -45 -47 -16 -48 -17 -51 -63 -3 -53 21 -87 62 -87 13
0 29 -7 37 -16 27 -33 71 -47 131 -40 52 5 60 3 84 -19 34 -32 71 -32 115 1
34 25 64 27 147 7 17 -4 31 5 62 38 35 38 44 43 78 41 34 -2 46 3 79 35 22 21
52 64 67 95 14 31 38 65 53 76 64 44 178 59 258 32 21 -7 71 -12 109 -12 75 2
92 -8 74 -41 -14 -27 -73 -49 -148 -56 -60 -6 -66 -9 -88 -41 -29 -44 -51 -53
-127 -54 -46 -1 -68 -7 -93 -24 -31 -23 -32 -25 -26 -77 l7 -53 -53 -27 -53
-27 6 -49 c6 -44 3 -52 -18 -71 -27 -23 -31 -48 -14 -77 10 -14 7 -25 -14 -57
-24 -34 -25 -41 -13 -59 15 -23 53 -32 69 -16 14 14 54 14 62 1 12 -20 43 -9
68 23 22 29 30 33 62 29 50 -6 82 14 105 65 19 44 31 50 104 55 55 4 78 38 85
125 l6 68 42 10 c23 6 47 15 53 21 14 14 40 136 40 186 0 21 10 55 23 77 39
69 90 97 199 108 44 5 48 3 53 -20 4 -14 2 -34 -4 -45 -6 -12 -11 -29 -11 -40
0 -21 -18 -32 -51 -32 -38 0 -88 -38 -113 -87 -21 -41 -20 -70 1 -81 37 -18
161 -33 248 -30 l90 3 3 38 c4 42 -18 84 -67 131 -17 17 -31 39 -31 49 0 71
69 171 146 213 22 11 55 30 74 41 19 10 83 38 142 62 152 61 204 51 165 -32
-22 -46 -64 -82 -129 -112 -54 -25 -58 -29 -58 -60 0 -40 -32 -75 -67 -75 -14
0 -26 -7 -29 -17 -3 -10 -10 -28 -16 -39 -6 -12 -7 -35 -4 -50 5 -23 -1 -41
-28 -83 -20 -30 -32 -59 -29 -65 4 -6 17 -26 30 -45 15 -21 23 -49 23 -75 0
-23 7 -50 15 -60 8 -11 15 -35 15 -53 0 -37 25 -56 68 -51 21 2 30 11 38 38 8
23 19 36 32 38 22 3 39 21 57 56 6 11 30 32 54 45 l44 24 -7 68 c-6 67 -5 69
24 96 33 29 36 46 16 84 -23 44 -26 74 -11 103 20 37 19 56 -5 86 -26 33 -25
85 2 123 46 66 68 77 152 77 61 0 69 -2 105 -35 61 -56 65 -81 57 -423 -5
-273 -15 -475 -31 -642 -15 -151 -127 -278 -269 -306 -23 -4 -120 -8 -216 -9
-174 0 -175 0 -225 -29 -27 -16 -57 -34 -65 -41 -34 -29 -120 -65 -189 -81
-90 -20 -158 -15 -261 19 -114 37 -148 45 -240 57 -89 12 -134 6 -256 -35 -65
-22 -134 -78 -117 -96 10 -10 30 -9 100 4 206 38 239 35 369 -39 92 -52 128
-64 196 -64 70 0 106 -13 117 -42 19 -52 -42 -111 -133 -128 -74 -14 -111 -8
-160 25 -67 46 -100 52 -163 30 -72 -25 -81 -45 -21 -45 44 0 59 -7 170 -86
27 -19 67 -35 109 -43 58 -11 74 -10 147 8 45 11 93 28 107 37 14 9 62 59 106
110 44 52 84 94 87 94 4 0 21 13 37 28 69 64 184 91 299 70 39 -7 114 -14 166
-15 52 -1 103 -2 113 -2 26 -1 21 -32 -14 -74 -52 -64 -114 -83 -306 -96 -134
-9 -144 -11 -177 -38 -20 -15 -48 -52 -62 -82 -50 -101 -115 -156 -229 -192
-38 -12 -74 -25 -78 -29 -18 -16 25 -31 94 -31 194 -2 184 -4 238 49 27 27 58
67 70 90 40 78 98 92 118 28 9 -28 7 -42 -8 -76 -35 -79 -22 -173 35 -260 39
-59 49 -68 80 -76 28 -7 31 -3 17 24 -5 9 -14 41 -21 70 -18 80 9 188 74 288
l39 60 72 11 c108 18 188 67 331 205 50 48 98 88 107 88 16 0 27 -29 43 -107
8 -40 -39 -112 -113 -171 -70 -57 -97 -102 -113 -187 -23 -131 -55 -175 -187
-260 -35 -22 -61 -44 -59 -50 4 -13 120 -11 149 2 12 6 38 17 57 24 95 35 128
73 164 191 24 77 63 118 114 118 39 0 51 -33 72 -200 14 -118 21 -142 53 -183
35 -43 58 -47 85 -12 25 31 37 65 51 140 7 33 16 79 21 103 6 23 10 55 10 71
0 15 5 42 11 60 9 25 16 31 40 31 39 0 76 -49 108 -146 34 -100 53 -137 83
-151 34 -18 224 -55 260 -51 37 4 50 27 19 35 -12 3 -21 9 -21 14 0 5 -6 9
-14 9 -24 0 -97 43 -131 77 -31 31 -55 89 -55 132 0 24 -18 103 -33 144 -6 17
-39 50 -81 81 -90 68 -108 87 -115 134 -9 49 7 127 30 147 16 16 19 15 36 -7
10 -12 54 -59 98 -104 90 -90 193 -149 280 -160 110 -13 135 -32 186 -141 49
-104 53 -173 14 -257 -30 -67 -30 -66 -2 -66 54 0 127 92 155 195 14 56 11 76
-24 153 -13 29 -24 66 -24 82 0 28 3 30 35 30 40 0 89 -39 152 -121 21 -28 51
-56 67 -64 41 -21 254 -21 282 -1 19 15 19 15 -1 30 -11 8 -31 16 -45 16 -28
0 -97 23 -140 45 -37 19 -72 62 -107 131 -56 111 -98 130 -308 140 -55 3 -120
11 -144 17 -51 14 -131 80 -131 108 0 17 8 19 79 19 45 0 112 8 157 20 90 23
173 25 225 7 54 -19 166 -87 206 -126 19 -19 50 -58 69 -87 52 -82 69 -90 219
-103 151 -13 182 -8 234 43 61 58 110 86 152 86 49 0 49 11 0 38 -58 33 -100
29 -172 -18 -53 -34 -70 -40 -117 -40 -89 0 -192 67 -192 126 0 20 21 28 90
36 102 11 132 19 173 47 21 14 62 41 90 59 l52 33 110 -5 c119 -5 168 -11 202
-28 37 -18 67 6 45 38 -14 20 -97 71 -137 84 -22 7 -52 17 -68 23 -38 14 -210
14 -238 0 -13 -6 -60 -28 -104 -49 -94 -45 -153 -63 -214 -64 -60 0 -96 12
-236 81 -169 83 -202 90 -404 83 -197 -7 -212 -3 -299 84 -100 99 -111 139
-122 432 -5 118 -12 293 -16 388 -7 170 1 285 28 387 16 65 85 125 143 125 36
0 112 -38 136 -69 26 -32 21 -98 -10 -159 -20 -39 -20 -40 -1 -57 28 -25 25
-53 -10 -104 -40 -59 -39 -86 4 -112 40 -24 48 -45 34 -99 -13 -48 0 -67 54
-84 24 -8 34 -18 36 -36 5 -34 17 -46 50 -53 18 -4 33 -18 47 -44 21 -41 50
-52 84 -33 16 8 21 21 21 55 0 35 5 48 25 64 24 18 25 24 19 69 -6 48 -5 50
22 63 46 22 44 61 -5 111 -46 45 -48 53 -25 79 29 32 10 65 -66 116 -50 33
-70 52 -70 67 0 26 -26 66 -44 66 -44 0 -126 89 -126 138 0 19 5 22 40 22 65
0 323 -118 389 -177 38 -35 101 -139 101 -168 0 -6 -13 -23 -28 -36 -50 -42
-74 -86 -74 -135 -1 -25 4 -50 10 -56 27 -27 291 37 336 81 18 19 18 20 -5 53
-41 58 -80 87 -132 97 -25 5 -36 16 -51 46 -30 63 -4 81 89 60 129 -29 195
-113 195 -248 0 -75 16 -117 45 -117 27 0 55 -42 55 -83 0 -21 7 -61 16 -88
19 -56 45 -70 99 -50 57 20 82 2 115 -86 10 -27 18 -33 41 -33 15 0 31 5 34
10 12 19 52 10 80 -20 28 -30 68 -39 80 -20 8 13 52 13 60 0 11 -17 47 -11 66
12 22 25 24 44 6 55 -26 15 -35 45 -25 75 9 26 7 33 -21 62 -27 28 -31 39 -29
75 3 40 0 44 -32 62 -19 10 -39 20 -44 22 -6 2 -9 23 -8 48 4 81 -37 119 -126
119 -67 0 -104 15 -124 50 -21 37 -53 50 -126 50 -66 0 -122 27 -122 60 0 17
7 20 48 20 26 0 79 7 117 16 132 29 169 30 219 0 47 -27 103 -86 126 -133 39
-77 47 -83 113 -83 61 -1 97 -15 97 -39 0 -21 48 -61 73 -61 13 0 32 9 42 20
24 26 41 25 101 -5 62 -32 77 -31 108 2 24 25 30 27 101 25 58 -2 75 0 75 11
0 21 34 47 61 47 43 0 58 20 61 80 l3 55 -38 3 c-28 2 -40 9 -46 26 -13 34
-39 50 -90 56 -40 4 -48 9 -62 38 -21 47 -36 53 -102 46 -53 -6 -61 -4 -85 19
-48 44 -87 43 -151 -5 -25 -19 -96 -25 -106 -8 -10 17 -37 12 -113 -22 -59
-26 -77 -30 -100 -22 -47 17 -39 39 35 86 37 24 82 49 98 55 51 18 157 33 218
31 43 -2 60 1 67 12 31 50 30 50 135 50 82 0 106 4 133 20 29 18 32 24 27 53
-7 45 11 63 80 77 33 7 70 17 83 23 33 15 38 50 13 86 -12 16 -21 36 -21 44 0
8 23 34 50 57 28 23 50 46 50 52 0 5 -9 21 -20 35 -25 32 -25 59 0 101 26 42
25 46 -7 77 -49 46 -56 47 -108 13 -46 -31 -47 -31 -81 -14 -54 25 -79 21
-103 -19 -22 -39 -41 -43 -86 -19 -16 8 -40 12 -53 9 -27 -7 -52 -58 -52 -105
0 -17 -5 -40 -11 -51 -9 -18 -17 -19 -65 -13 l-54 6 -15 -36 c-8 -19 -15 -48
-15 -64 0 -80 -24 -112 -85 -112 -27 0 -45 -25 -45 -64 0 -67 -46 -127 -149
-195 -86 -56 -104 -63 -257 -92 -67 -12 -236 -7 -299 9 -22 6 -56 15 -75 20
-85 22 -200 81 -200 102 0 26 52 44 103 35 23 -5 81 -8 128 -9 47 -1 92 -6
100 -12 8 -6 29 -17 47 -24 32 -12 35 -11 67 20 31 30 37 32 77 25 24 -4 59
-8 78 -9 32 -1 35 2 50 44 15 43 17 45 60 48 54 4 70 16 70 51 0 34 17 51 50
51 45 0 62 29 53 86 l-8 49 -45 3 c-55 3 -85 17 -98 47 -16 34 -45 39 -93 15
-51 -24 -67 -20 -94 23 -32 51 -70 49 -134 -9 l-52 -47 -41 12 c-49 15 -62 6
-105 -79 -21 -41 -39 -60 -67 -74 -30 -15 -43 -31 -65 -80 -20 -43 -36 -65
-57 -75 -16 -7 -37 -17 -47 -22 -9 -5 -37 -12 -61 -15 -45 -7 -75 3 -166 56
-25 14 -72 37 -105 50 -33 13 -64 26 -70 30 -10 7 -56 20 -137 41 -29 7 -75 9
-120 5 -40 -4 -107 -9 -149 -12 l-76 -6 -25 33 c-40 55 -48 116 -50 399 -3
292 1 317 56 378 36 39 120 72 183 72 37 0 55 -7 94 -37 66 -50 84 -90 85
-186 0 -45 6 -83 12 -89 17 -17 15 -74 -3 -102 -28 -42 -35 -82 -18 -105 8
-12 22 -21 32 -21 42 0 50 -37 25 -109 -13 -39 -13 -46 1 -67 13 -20 24 -24
62 -24 50 0 72 -17 73 -57 0 -29 45 -63 84 -63 21 0 44 -10 66 -30 40 -33 59
-36 100 -15 33 17 37 39 18 92 -12 32 -11 34 30 69 23 19 42 41 42 47 0 7 -14
30 -30 51 -35 46 -38 71 -10 86 14 8 20 21 20 45 0 31 -6 39 -50 67 -52 34
-57 46 -39 79 8 16 7 25 -7 40 -18 20 -70 49 -87 49 -6 0 -25 11 -44 26 -24
18 -33 33 -33 54 0 23 -7 33 -30 45 -16 8 -38 15 -50 15 -26 0 -136 73 -150
100 -29 54 3 86 72 71 24 -5 70 -14 103 -21 240 -45 292 -63 342 -119 41 -46
41 -70 -1 -126 -41 -53 -52 -96 -36 -135 15 -37 32 -43 78 -26 20 8 69 24 107
36 94 29 155 65 155 92 0 11 -20 40 -44 64 -37 38 -49 44 -84 44 -22 0 -48 3
-57 6 -19 8 -48 61 -40 74 7 11 104 4 180 -12 64 -14 98 -49 119 -121 9 -30
16 -60 16 -66 0 -7 20 -20 45 -31 25 -11 48 -27 51 -37 3 -10 9 -27 14 -38 4
-11 11 -33 16 -49 5 -17 23 -38 42 -49 27 -16 37 -17 61 -7 38 15 58 2 93 -60
35 -63 75 -74 136 -39 l40 23 49 -24 c51 -26 68 -27 94 -3 19 16 62 20 96 9
43 -14 101 73 76 113 -5 9 -20 21 -31 27 -40 20 -62 47 -62 74 0 32 -11 43
-62 59 -34 11 -38 16 -38 47 0 38 -26 70 -65 80 -24 6 -46 4 -108 -12 -23 -5
-33 -1 -62 31 l-36 37 -69 -7 c-53 -5 -75 -4 -87 6 -11 9 -44 14 -99 14 -46 0
-88 5 -93 10 -19 19 7 39 61 46 29 4 89 17 133 29 211 57 269 52 357 -33 35
-34 79 -57 110 -57 34 0 78 -32 78 -57 0 -7 15 -28 34 -47 24 -26 42 -36 64
-36 17 0 34 5 37 10 12 19 52 10 90 -20 48 -38 66 -38 110 1 l36 32 50 -24 50
-23 30 32 c35 37 28 35 85 21 51 -13 69 -4 90 46 20 48 7 82 -41 110 -62 37
-78 58 -70 93 5 24 2 33 -17 46 -12 9 -34 16 -49 16 -30 0 -59 28 -59 57 0 11
-11 30 -24 42 -26 25 -24 25 -154 -1 -62 -12 -64 -12 -82 11 -14 20 -23 23
-53 18 -19 -3 -55 -20 -78 -37 -35 -25 -50 -30 -74 -25 -54 12 -100 8 -150
-15 -97 -44 -127 -52 -157 -39 -15 6 -28 17 -28 25 0 15 60 64 79 64 6 0 19 4
29 8 9 5 35 17 57 28 29 14 43 28 51 53 12 38 49 70 79 71 38 1 119 30 142 52
26 24 28 46 11 95 -12 33 -11 34 49 96 93 95 106 136 54 179 -48 41 -55 64
-31 98 15 22 20 41 18 72 -3 39 -7 45 -40 61 -34 15 -38 21 -38 55 0 60 -10
82 -39 87 -14 3 -39 10 -55 15 -40 13 -60 -1 -76 -52 -18 -57 -37 -78 -71 -78
-41 0 -61 -42 -46 -97 13 -51 -7 -88 -55 -101 -26 -7 -34 -15 -39 -43 -7 -32
0 -95 15 -129 4 -9 -2 -24 -14 -35 -11 -11 -29 -29 -41 -40 -22 -21 -21 -27 2
-118 12 -44 11 -49 -10 -71 -14 -15 -25 -44 -30 -77 -19 -129 -55 -164 -223
-218 -63 -20 -203 -32 -250 -21 -24 5 -57 10 -74 10 -44 0 -60 22 -34 45 15
13 37 18 85 19 60 1 66 3 102 39 35 34 44 37 93 37 37 0 66 7 88 20 28 18 32
25 32 65 l0 45 59 26 c75 34 92 60 66 108 -19 36 -17 51 17 99 10 14 10 20 0
35 -33 47 -37 63 -19 94 9 16 17 36 17 43 0 15 -56 65 -73 65 -6 0 -30 -18
-52 -40 -38 -37 -44 -40 -70 -30 -32 12 -62 -7 -67 -43 -2 -17 -13 -23 -48
-30 -56 -11 -67 -20 -75 -60 -12 -60 -16 -65 -50 -71 -50 -10 -65 -38 -65
-119 0 -58 -4 -74 -24 -97 -13 -16 -27 -49 -30 -74 -5 -34 -15 -52 -42 -75
-41 -37 -95 -61 -135 -61 -43 0 -118 22 -123 37 -5 12 51 43 79 43 20 0 48 38
41 55 -7 19 5 32 56 63 42 26 53 46 32 62 -18 16 -18 31 1 66 30 58 6 76 -50
38 -44 -30 -63 -30 -67 -2 -6 42 -28 34 -81 -31 -16 -20 -19 -20 -41 -6 -37
24 -47 6 -73 -135 -3 -19 -15 -48 -26 -63 l-20 -29 -96 5 c-53 3 -121 11 -151
18 -99 23 -228 16 -350 -20 -19 -5 -54 -16 -78 -23 -37 -11 -44 -10 -59 5 -25
25 -41 132 -42 274 -1 137 14 191 72 252 56 58 149 87 199 60 69 -37 84 -82
48 -141 -24 -39 -25 -64 -5 -111 24 -58 47 -64 108 -27 71 43 173 125 192 154
21 32 12 49 -41 74 -31 15 -63 22 -106 22 -60 0 -62 1 -105 46 -54 57 -55 78
-5 103 111 57 241 21 293 -80 20 -40 50 -59 94 -59 14 0 31 -10 42 -26 10 -14
28 -38 41 -54 23 -29 24 -29 53 -14 35 18 62 12 103 -23 15 -13 41 -30 56 -38
26 -14 29 -13 60 16 26 25 37 30 58 24 15 -4 54 -8 87 -9 l60 -1 20 43 c25 53
38 62 91 62 47 0 73 22 83 71 5 26 14 34 51 48 40 14 45 20 48 49 2 19 -4 44
-13 59 -16 23 -21 25 -70 18 -51 -6 -56 -4 -86 25 -32 30 -58 33 -83 9 -19
-18 -59 -8 -93 21 -19 17 -37 29 -41 26 -4 -2 -28 -13 -55 -25 -52 -24 -65
-21 -106 23 -14 14 -30 26 -37 26 -20 0 -100 -47 -128 -75 -26 -25 -77 -34
-104 -16 -8 4 -36 0 -69 -11 -31 -10 -69 -18 -84 -18 -35 0 -79 19 -79 35 0 7
26 29 58 51 56 37 58 38 160 40 l104 2 37 36 c32 32 43 36 86 36 28 0 66 -5
86 -10 26 -7 46 -6 75 3 33 12 41 20 53 58 8 24 19 47 25 51 6 4 45 8 87 8 62
0 81 4 103 21 23 18 25 25 20 60 -6 37 -4 42 36 79 24 22 46 40 50 40 4 0 12
11 18 24 9 20 7 29 -9 49 -26 34 -24 63 7 100 21 25 25 38 20 66 -10 64 -89
114 -124 79 -17 -17 -125 -16 -145 0 -13 11 -22 7 -56 -28 -42 -44 -58 -47
-126 -26 -28 9 -75 -59 -75 -107 0 -52 -55 -88 -87 -56 -29 29 -85 -29 -104
-108 -7 -26 -16 -59 -21 -73 -9 -25 -48 -50 -79 -50 -23 0 -34 -16 -58 -84
-30 -87 -87 -142 -184 -177 -97 -36 -121 -20 -85 57 13 30 42 63 79 92 33 26
59 53 59 60 0 33 32 70 72 87 86 34 106 47 118 76 10 23 10 36 1 55 -20 44
-12 65 49 131 75 80 76 102 8 146 -36 23 -43 53 -23 110 23 68 -1 127 -51 127
-34 0 -54 36 -54 96 0 65 -14 78 -77 71 -52 -6 -82 -34 -83 -77 0 -37 -18 -50
-66 -50 -53 0 -68 -18 -70 -83 -3 -65 -16 -88 -64 -109 -35 -15 -40 -20 -40
-50 0 -18 11 -51 25 -73 64 -107 64 -105 10 -145 -46 -33 -45 -60 4 -141 l39
-64 -26 -47 -27 -48 18 -49 c27 -78 22 -102 -40 -197 -14 -23 -62 -48 -153
-84 -19 -8 -46 -21 -60 -29 -13 -9 -40 -21 -59 -28 -30 -10 -38 -10 -53 4 -50
45 3 123 125 183 60 29 75 54 52 80 -21 24 -13 47 20 60 27 10 65 64 65 93 0
24 -26 32 -54 17 -13 -6 -32 -10 -41 -8 -14 2 -9 9 23 30 48 32 72 93 53 135
-14 31 -26 29 -53 -7 -12 -17 -45 -45 -73 -63 -27 -17 -61 -43 -74 -57 -42
-44 -101 -142 -101 -168 0 -70 -49 -124 -64 -69 -17 66 2 141 54 206 29 36 32
45 22 61 -22 35 -15 83 15 105 53 39 93 77 93 89 0 7 -13 25 -30 41 -16 16
-30 33 -30 38 0 5 22 34 50 63 51 57 72 113 53 143 -5 9 -25 21 -44 27 -33 12
-34 13 -32 65 1 30 4 70 8 90 6 31 3 39 -16 53 -13 9 -35 16 -49 16 -46 0 -70
34 -70 97 0 22 -5 44 -12 51 -17 17 -142 16 -157 -2z m113 -183 c3 -21 4 -66
2 -100 -5 -74 8 -82 52 -32 18 20 35 30 47 27 17 -3 9 -14 -43 -65 -59 -59
-62 -63 -62 -110 0 -28 3 -52 6 -56 4 -3 24 3 45 13 58 30 57 6 0 -32 -49 -32
-51 -35 -51 -80 0 -56 9 -65 40 -38 16 14 27 17 34 10 6 -6 3 -15 -11 -27 -12
-10 -31 -26 -43 -36 -17 -14 -20 -27 -18 -65 2 -31 7 -46 16 -44 17 3 15 -11
-5 -52 -22 -43 -33 -46 -33 -8 0 50 -20 103 -43 111 -26 10 -63 49 -55 57 4 3
20 -2 38 -11 47 -24 64 -14 57 37 -5 36 -16 51 -76 108 -66 61 -81 86 -64 103
7 8 43 -21 43 -34 0 -13 61 -69 75 -69 7 0 16 7 19 16 17 44 -4 106 -46 141
-29 23 -51 61 -43 73 9 15 30 2 49 -30 9 -17 24 -30 32 -30 11 0 14 23 14 130
0 125 12 171 24 93z m-788 -168 c9 -38 18 -94 21 -122 3 -29 9 -53 14 -53 5 0
19 16 31 35 13 19 26 35 31 35 15 0 6 -33 -21 -73 -43 -65 -53 -107 -37 -173
12 -51 26 -73 47 -74 4 0 17 18 28 39 11 22 25 43 31 46 24 15 21 -9 -9 -68
-42 -85 -44 -95 -27 -160 17 -67 19 -97 5 -97 -5 0 -10 6 -10 14 0 8 -10 22
-22 30 -17 13 -19 18 -9 30 11 13 7 31 -21 101 -32 82 -35 87 -95 126 -67 44
-123 100 -123 124 0 29 27 14 74 -40 68 -80 96 -73 96 23 0 45 -20 82 -45 82
-16 0 -58 47 -48 53 5 3 15 2 23 -4 8 -5 23 -9 34 -9 16 0 18 6 13 43 -3 23
-12 71 -20 107 -8 36 -13 69 -10 73 11 19 33 -21 49 -88z m1515 -31 l22 -36
13 23 c13 24 13 24 14 -8 0 -39 14 -49 46 -32 13 7 27 10 30 6 8 -8 -21 -37
-36 -37 -22 0 -40 -29 -40 -65 0 -20 -4 -44 -9 -53 -4 -9 -11 -34 -15 -54 -8
-46 8 -50 52 -13 17 14 35 25 41 25 6 0 11 5 11 10 0 6 9 10 20 10 11 0 20 -3
20 -6 0 -9 -42 -43 -80 -64 -53 -30 -80 -56 -80 -79 0 -11 -4 -23 -10 -26 -5
-3 -10 -17 -10 -31 0 -22 3 -24 28 -18 15 4 32 10 37 14 23 16 45 19 45 6 0
-7 -26 -26 -57 -42 -52 -26 -61 -36 -88 -92 -16 -34 -33 -62 -37 -62 -14 0 -9
43 11 96 l20 52 -24 32 c-13 18 -33 38 -43 46 -25 17 -45 71 -30 80 6 4 14 1
18 -7 21 -36 71 -99 79 -99 15 0 20 13 31 71 10 49 8 55 -17 92 -15 22 -32 47
-38 56 -5 10 -20 33 -32 52 -23 35 -30 69 -14 69 5 0 16 -15 24 -33 24 -50 76
-117 91 -117 9 0 16 20 21 65 7 70 2 96 -26 137 -17 23 -26 68 -15 68 2 0 14
-16 27 -36z m929 -225 c0 -12 -25 -39 -37 -39 -11 0 -93 -78 -93 -89 0 -5 10
-12 23 -16 20 -6 18 -8 -13 -14 -20 -4 -42 -11 -50 -16 -25 -15 -110 -90 -110
-97 0 -9 59 -28 91 -28 15 0 31 -5 35 -12 5 -8 -13 -10 -72 -5 l-79 6 -72 -47
c-40 -26 -73 -50 -73 -54 0 -5 16 -8 35 -8 25 0 35 -4 35 -15 0 -13 -10 -14
-64 -9 -57 6 -68 4 -108 -20 -25 -14 -48 -26 -51 -26 -15 0 -6 23 15 40 18 14
21 26 19 64 -1 26 1 56 4 67 12 36 25 19 25 -30 0 -28 4 -52 9 -55 4 -3 29 8
53 24 46 31 58 55 58 121 0 15 5 41 11 56 6 15 16 39 21 53 6 14 14 33 19 42
5 10 9 25 9 33 0 8 5 15 10 15 12 0 13 -34 1 -58 -5 -9 -14 -37 -21 -62 -6
-25 -15 -58 -20 -74 -10 -32 -6 -46 15 -46 23 0 114 90 127 126 11 32 28 46
28 24 0 -20 17 -8 105 75 84 80 115 100 115 74z m-3210 -119 c23 -22 46 -40
50 -40 4 0 23 -14 40 -30 18 -17 42 -32 54 -33 18 -2 21 3 19 33 -1 19 -5 50
-8 68 -4 17 -3 32 1 32 16 0 34 -53 34 -96 0 -60 24 -108 72 -143 60 -44 68
-41 68 24 0 64 16 73 24 15 3 -22 9 -58 12 -80 4 -30 14 -47 40 -66 19 -15 31
-30 28 -35 -5 -9 -80 37 -119 74 -17 16 -31 17 -98 13 -82 -6 -157 1 -157 15
0 4 33 9 72 11 90 4 98 20 36 65 -32 23 -59 32 -106 38 -40 4 -62 11 -59 19 2
6 12 13 23 14 38 7 38 22 -1 57 -21 20 -51 43 -67 53 -30 18 -37 32 -14 32 7
0 33 -18 56 -40z m3966 -592 c-4 -18 -9 -54 -12 -80 -6 -46 -5 -48 18 -48 13
0 29 5 36 12 6 6 15 9 18 5 9 -9 -15 -37 -33 -37 -8 0 -25 -12 -38 -26 -19
-21 -25 -38 -25 -74 0 -26 -7 -64 -16 -85 -8 -20 -13 -39 -10 -42 8 -8 66 8
66 18 0 5 7 9 15 9 27 0 15 -14 -50 -60 -37 -26 -72 -60 -83 -82 -20 -35 -20
-36 -1 -41 25 -7 14 -37 -13 -37 -10 0 -41 -23 -69 -52 -47 -49 -77 -59 -51
-18 7 11 12 31 12 44 0 18 6 25 23 28 15 2 30 19 48 53 l26 50 -18 37 c-20 40
-25 78 -10 78 5 0 15 -13 23 -30 7 -16 16 -30 21 -30 16 0 47 93 47 140 0 34
-9 65 -30 105 -16 31 -30 61 -30 67 0 20 25 0 46 -38 12 -21 26 -38 30 -37 14
3 22 43 23 114 1 60 12 89 34 89 5 0 6 -15 3 -32z m-1256 -16 c0 -5 -9 -17
-20 -27 -27 -24 -25 -32 9 -50 28 -14 32 -13 88 17 32 17 69 39 82 49 25 20
61 26 61 10 0 -5 -15 -16 -33 -24 -18 -9 -41 -25 -51 -36 -17 -19 -17 -21 -2
-27 9 -3 49 -5 89 -2 62 3 80 8 110 31 37 28 37 28 34 5 -2 -20 2 -23 28 -20
17 2 34 8 39 13 6 5 23 9 38 9 16 0 37 5 48 12 10 7 23 9 27 4 14 -13 -39 -37
-119 -53 -16 -3 -28 -10 -28 -15 0 -5 -17 -8 -37 -7 -21 1 -75 2 -120 1 -76
-2 -83 -4 -83 -22 0 -25 -7 -25 -48 0 -39 24 -112 27 -112 6 0 -8 5 -18 10
-21 6 -3 10 -17 10 -31 0 -13 -4 -24 -10 -24 -5 0 -10 5 -10 10 0 46 -96 120
-155 120 -14 0 -25 5 -25 10 0 6 20 10 45 10 38 0 51 5 73 29 25 28 62 41 62
23z m-2255 -42 c45 -31 83 -38 102 -19 6 6 13 7 17 1 6 -10 -20 -24 -83 -43
-23 -7 -50 -23 -58 -36 -17 -26 -33 -30 -33 -8 0 35 -110 7 -157 -41 -29 -29
-144 -106 -150 -100 -9 9 13 31 78 78 32 24 57 47 56 53 -4 11 -169 7 -177 -4
-16 -25 -110 -45 -95 -21 3 6 17 10 31 10 14 0 24 6 24 14 0 18 -54 46 -87 46
-13 0 -32 5 -43 10 -11 6 -29 15 -40 20 -11 6 -29 10 -40 10 -22 0 -27 15 -7
23 12 5 160 -40 185 -56 7 -5 50 -11 94 -15 68 -4 83 -2 93 11 11 16 15 16 44
1 21 -11 44 -14 67 -10 36 7 42 23 22 56 -21 33 1 35 41 2 63 -51 146 -38 87
13 -25 21 -33 35 -20 35 3 0 25 -13 49 -30z m-1315 -95 c15 -74 31 -82 56 -30
9 19 20 35 25 35 14 0 11 -13 -20 -72 l-28 -57 21 -65 c15 -48 26 -66 39 -66
13 0 17 -8 17 -35 0 -33 28 -95 56 -124 11 -13 14 -12 20 2 12 33 27 18 21
-22 -3 -24 1 -50 9 -66 8 -15 14 -34 14 -41 0 -8 5 -14 10 -14 6 0 10 -9 10
-20 0 -11 -4 -20 -10 -20 -5 0 -10 5 -10 11 0 17 -99 148 -120 159 -10 6 -29
10 -42 10 -23 1 -58 21 -58 34 0 11 46 6 58 -6 7 -7 15 -8 21 -2 13 14 -27 94
-47 94 -23 0 -77 34 -121 75 -52 49 -31 54 27 6 26 -23 58 -41 71 -41 20 0 22
3 16 33 -13 58 -49 121 -90 159 -22 20 -37 40 -33 44 5 4 16 0 26 -9 33 -30
41 -21 35 38 -8 77 10 70 27 -10z m710 -386 c0 -68 1 -72 43 -120 23 -27 45
-49 50 -49 4 0 7 14 7 30 0 17 5 30 10 30 6 0 10 -17 10 -37 0 -21 9 -52 19
-70 28 -46 2 -51 -40 -7 -32 33 -34 34 -118 34 -58 0 -82 3 -75 10 6 6 32 11
58 12 25 0 49 4 51 8 3 5 -7 22 -21 39 -18 22 -35 31 -55 31 -16 0 -29 5 -29
10 0 6 9 10 20 10 30 0 24 16 -20 60 -25 24 -50 40 -65 40 -28 0 -42 17 -27
32 15 15 70 -8 105 -44 15 -16 32 -26 36 -24 5 3 11 24 15 46 10 63 26 37 26
-41z m4111 -395 c9 -12 27 -15 66 -12 43 2 54 0 59 -14 3 -11 27 -24 62 -34
31 -9 67 -21 78 -26 12 -6 30 -7 41 -4 14 4 23 -2 36 -23 20 -35 8 -49 -18
-21 -10 11 -31 20 -46 20 -15 0 -31 5 -35 11 -3 6 -24 9 -48 7 -26 -3 -45 0
-51 9 -16 20 -115 53 -162 53 -45 0 -53 -9 -28 -30 16 -14 21 -44 6 -38 -15 5
-101 88 -101 97 0 4 13 6 29 3 16 -2 37 1 48 7 26 15 49 13 64 -5z m-4886 -23
c10 -17 108 -23 195 -12 85 11 150 7 150 -10 0 -5 -20 -9 -45 -9 -79 0 -148
-20 -177 -50 -16 -16 -28 -34 -28 -39 0 -6 -4 -11 -10 -11 -5 0 -10 4 -10 9 0
6 5 13 10 16 6 3 10 15 10 26 0 22 -3 21 -79 -4 -19 -7 -62 -39 -97 -72 -88
-86 -125 -117 -131 -111 -10 9 24 51 76 96 73 63 72 70 -7 53 -86 -18 -125
-48 -169 -132 -1 -1 -7 0 -12 4 -12 7 16 65 31 65 4 0 8 7 8 15 0 21 -32 19
-104 -5 -115 -39 -128 -42 -134 -36 -21 21 150 79 293 98 11 2 21 11 23 21 3
12 -3 17 -22 17 -14 0 -28 5 -32 11 -5 8 6 9 37 5 108 -16 147 -17 196 -6 29
7 53 15 53 18 0 11 -37 31 -57 32 -12 0 -25 5 -28 10 -4 6 6 10 24 10 16 0 32
-4 36 -9z m1643 -281 c-7 -17 -16 -30 -20 -30 -5 0 -8 -16 -8 -35 0 -24 -5
-35 -15 -35 -8 0 -21 -13 -30 -30 -17 -33 -20 -125 -5 -135 6 -3 10 -15 10
-26 0 -10 -4 -19 -10 -19 -5 0 -10 8 -10 19 0 10 -7 24 -15 31 -12 10 -16 7
-25 -16 -6 -16 -18 -42 -26 -58 -8 -16 -14 -41 -14 -56 0 -18 -6 -29 -17 -32
-10 -3 -24 -22 -31 -44 -19 -55 -42 -104 -49 -104 -3 0 -3 20 0 44 5 35 3 45
-9 48 -11 2 -4 14 24 45 39 41 82 119 82 148 0 23 -22 18 -60 -15 -19 -16 -41
-29 -47 -30 -28 -1 -6 26 42 50 17 8 32 17 35 20 3 3 19 16 36 28 40 28 62 77
46 103 -10 15 -9 19 2 19 8 0 38 37 67 81 51 78 76 93 47 29z m2615 33 c18 -9
38 -16 46 -14 7 1 20 -7 28 -18 8 -12 39 -33 70 -47 46 -21 61 -23 80 -15 32
15 33 14 30 -11 -3 -33 92 -80 146 -73 29 4 37 2 37 -11 0 -11 -6 -14 -21 -9
-13 4 -27 1 -39 -10 -18 -16 -21 -15 -57 12 -21 16 -60 37 -86 46 -48 16 -49
16 -54 -3 -7 -28 -23 -25 -23 3 0 13 -8 31 -18 40 -15 14 -110 67 -119 67 -2
0 -3 -9 -3 -20 0 -35 -20 -22 -40 26 -28 64 -28 64 23 37z m-931 -38 c14 -18
29 -25 54 -25 19 0 34 -4 34 -10 0 -5 -10 -10 -23 -10 -34 0 -38 -9 -20 -37 9
-14 24 -39 33 -56 17 -33 69 -65 105 -67 25 -1 61 -27 51 -37 -4 -4 -16 -2
-26 5 -22 13 -90 17 -90 4 0 -4 10 -23 23 -42 13 -19 29 -51 37 -70 18 -47 29
-60 51 -60 26 0 24 -16 -3 -24 -18 -4 -20 -8 -10 -18 20 -20 15 -40 -8 -33
-14 5 -20 2 -20 -9 0 -9 -4 -16 -10 -16 -5 0 -10 22 -10 49 0 44 -30 141 -52
166 -4 5 -8 17 -8 27 0 20 -20 24 -38 6 -18 -18 -27 -1 -13 26 11 19 11 31 0
62 -18 54 -48 87 -66 72 -21 -17 -28 -1 -13 28 11 20 12 29 2 44 -13 21 -16
50 -6 50 3 0 15 -11 26 -25z m-2582 5 c0 -5 -3 -10 -7 -10 -21 0 -73 -59 -79
-88 -7 -35 -24 -44 -24 -12 0 23 -11 25 -43 8 -37 -21 -57 -40 -57 -55 0 -16
-62 -113 -72 -113 -5 0 -8 9 -8 20 0 11 4 20 8 20 5 0 18 19 31 42 28 53 16
67 -36 43 -21 -9 -52 -24 -69 -32 -17 -7 -37 -26 -45 -41 -23 -47 -60 -92 -75
-92 -19 0 -18 7 6 33 40 42 3 67 -56 36 -12 -6 -32 -9 -45 -7 -22 4 -23 5 -4
12 11 4 28 12 37 17 10 5 25 9 34 9 11 0 14 6 9 20 -7 22 13 28 32 9 7 -7 31
-1 82 22 39 17 71 35 71 40 0 14 -36 29 -69 29 -40 0 -61 9 -61 27 0 9 6 12
18 9 9 -3 35 -8 57 -11 22 -4 60 -16 84 -26 39 -18 47 -19 75 -6 106 47 115
52 113 72 -2 15 6 21 33 26 54 10 60 10 60 -1z m-1115 -424 c22 -16 68 -59
102 -95 56 -58 75 -68 79 -40 1 5 2 14 3 19 0 6 6 10 11 10 6 0 10 -22 10 -48
0 -44 3 -50 42 -80 57 -43 80 -39 92 16 14 63 31 46 31 -32 l0 -67 85 -57
c115 -78 125 -112 11 -40 -45 28 -88 35 -119 19 -9 -5 -36 -12 -59 -16 -36 -6
-43 -4 -43 9 0 10 9 16 25 16 32 0 75 20 75 35 0 31 -33 40 -149 41 -90 1
-125 6 -156 20 l-40 19 32 3 c18 2 41 -2 52 -7 25 -14 151 -14 151 -1 0 14
-39 47 -79 66 -19 9 -67 21 -106 25 -96 11 -126 19 -132 36 -9 23 1 24 63 8
74 -19 94 -19 94 1 0 17 -62 83 -115 121 -16 12 -49 36 -73 53 -23 17 -40 35
-37 41 7 11 89 -30 150 -75z m5485 -5 c0 -10 -5 -31 -10 -48 -12 -33 1 -83 22
-83 7 0 41 30 76 66 l65 66 56 -9 c31 -4 56 -12 56 -18 0 -5 -23 -12 -51 -15
-41 -4 -61 -13 -98 -45 -26 -22 -64 -54 -84 -70 -20 -17 -55 -47 -77 -68 -21
-20 -52 -43 -67 -49 -43 -19 -34 -35 23 -40 27 -3 55 -10 62 -17 9 -9 -13 -11
-88 -9 -90 3 -103 1 -131 -19 -27 -19 -33 -20 -38 -8 -3 10 8 23 34 40 29 19
41 33 46 60 7 40 24 47 24 10 0 -14 5 -25 10 -25 6 0 10 4 10 9 0 5 8 12 18
15 9 4 37 24 62 45 l45 40 -3 64 c-2 38 1 68 7 72 6 3 11 17 11 31 0 13 5 24
10 24 6 0 10 -8 10 -19z m-4321 -160 c35 -51 49 -62 96 -80 31 -12 60 -21 66
-21 5 0 17 -4 27 -9 9 -5 29 -14 45 -22 40 -18 33 -29 -18 -29 -38 0 -45 3
-45 20 0 14 -7 20 -21 20 -11 0 -29 5 -41 11 -11 6 -40 11 -65 11 -25 0 -50
-5 -56 -11 -6 -6 -21 -11 -34 -11 -13 0 -23 -4 -23 -9 0 -5 -11 -11 -25 -13
-36 -7 -21 9 31 32 24 11 44 27 44 34 0 19 -84 25 -122 9 -37 -16 -48 -16 -48
-3 0 6 7 10 15 10 23 0 18 19 -7 25 -21 4 -94 13 -125 14 -7 1 -13 6 -13 11 0
6 25 10 55 10 30 0 55 5 55 10 0 15 19 12 48 -9 37 -25 152 -52 152 -34 0 4
-11 25 -25 45 -27 40 -30 48 -15 48 5 0 27 -27 49 -59z m3415 51 c2 -4 1 -14
-4 -22 -9 -15 9 -50 26 -50 6 0 36 18 67 40 30 22 60 40 66 40 5 0 9 -12 8
-27 -2 -31 -9 -30 111 -17 44 5 62 4 62 -5 0 -6 -10 -11 -22 -11 -12 0 -37 -4
-55 -10 -18 -5 -48 -15 -67 -20 -25 -8 -40 -8 -53 0 -13 9 -33 8 -78 -2 -56
-13 -60 -16 -58 -41 2 -29 -22 -38 -44 -16 -16 16 -82 16 -120 0 -37 -15 -40
-23 -17 -46 20 -20 12 -30 -13 -16 -10 5 -33 16 -50 23 -36 14 -43 28 -15 28
11 0 27 17 42 43 39 71 80 108 80 72 0 -8 -4 -15 -10 -15 -5 0 -10 -11 -10
-25 0 -30 17 -32 67 -8 32 15 42 28 57 76 6 18 21 23 30 9z m-906 -591 c7 -17
33 -43 58 -58 24 -15 44 -31 44 -35 0 -12 -28 -10 -35 2 -12 20 -35 10 -35
-15 0 -17 14 -39 42 -65 23 -21 39 -42 36 -46 -4 -3 -14 1 -23 10 -9 9 -21 14
-26 11 -12 -8 -12 -65 0 -65 5 0 11 -10 13 -21 2 -18 16 -31 46 -45 2 -1 -11
-16 -28 -34 -29 -30 -56 -36 -32 -7 8 9 8 25 -2 57 -12 39 -17 45 -40 45 -31
-1 -32 4 -6 48 19 32 19 35 3 68 -9 19 -23 39 -31 45 -12 9 -12 15 -2 34 9 17
9 29 1 47 -13 28 -14 53 -3 53 4 0 13 -13 20 -29z m-1612 -53 c-14 -79 -18
-185 -7 -192 13 -9 15 -56 2 -56 -6 0 -13 5 -16 10 -15 25 -33 6 -44 -47 -7
-32 -17 -65 -22 -73 -45 -72 -52 -81 -62 -71 -6 6 -4 15 7 26 21 22 31 64 19
84 -8 12 -4 22 17 42 29 30 56 101 45 119 -6 9 -9 9 -16 -1 -4 -7 -11 -10 -15
-6 -4 4 7 28 26 53 34 47 32 60 -9 66 -23 3 -22 5 17 31 23 15 42 32 42 37 0
6 5 10 11 10 7 0 9 -12 5 -32z m3128 13 c28 -25 124 -45 142 -30 16 13 45 5
42 -13 -6 -25 160 -35 230 -13 21 7 23 5 21 -31 -1 -22 1 -47 5 -56 13 -30
-19 -21 -45 12 -22 27 -29 30 -84 30 -33 0 -74 4 -92 9 -45 13 -48 2 -8 -32
19 -16 35 -33 35 -38 0 -18 -28 -8 -46 17 -24 33 -91 79 -126 88 -16 3 -39 9
-52 12 -18 5 -25 1 -31 -18 l-8 -23 -4 22 c-5 27 -48 63 -74 63 -11 0 -19 5
-19 10 0 19 92 11 114 -9z m-4708 -35 c30 -14 104 -11 104 5 0 5 11 9 25 9 14
0 25 -4 25 -10 0 -5 -9 -10 -20 -10 -11 0 -28 -4 -38 -9 -9 -5 -37 -18 -62
-30 -26 -13 -55 -37 -68 -57 -13 -20 -26 -33 -29 -30 -3 3 2 17 11 32 22 32
17 37 -33 37 -33 0 -49 -8 -83 -39 -41 -37 -43 -37 -48 -15 -3 12 -8 22 -13
22 -57 -2 -111 -17 -133 -38 -22 -20 -28 -22 -38 -10 -6 8 -20 19 -31 25 -19
10 -19 11 5 16 14 3 42 8 63 11 29 5 37 10 37 27 0 16 4 18 18 12 9 -4 42 -8
72 -9 42 0 55 3 55 15 0 12 13 14 65 12 47 -3 71 1 85 12 11 9 14 16 8 16 -7
0 -13 5 -13 10 0 13 1 13 36 -4z m677 -127 c-10 -17 -25 -38 -33 -47 -48 -52
-80 -114 -91 -176 -13 -68 -29 -89 -29 -36 0 17 -5 30 -10 30 -6 0 -33 -22
-60 -50 -41 -40 -50 -55 -50 -85 0 -19 -4 -35 -10 -35 -5 0 -10 9 -10 20 0 11
-5 20 -10 20 -23 0 -81 -47 -86 -70 -11 -48 -31 -83 -40 -69 -4 7 -3 14 4 17
19 6 3 22 -21 22 -21 0 -21 1 6 24 15 13 25 30 22 38 -4 9 7 18 32 27 42 15
113 77 113 99 0 10 -17 13 -75 11 -41 -1 -76 2 -77 7 -2 10 107 33 160 34 47
0 112 40 112 68 0 12 -11 14 -57 9 -32 -3 -69 -9 -82 -13 -19 -6 -22 -4 -19
12 2 14 15 21 53 25 118 16 152 33 215 108 45 54 72 60 43 10z m3431 -5 c9 -3
16 -11 16 -16 0 -15 49 -58 66 -58 12 0 12 -3 2 -20 -14 -22 -3 -35 66 -82 35
-24 44 -26 111 -21 48 4 74 2 79 -6 8 -12 -4 -14 -72 -11 -40 1 -43 0 -40 -21
2 -12 12 -27 23 -33 11 -6 22 -13 25 -16 13 -13 90 -50 104 -50 9 0 16 -8 16
-17 0 -17 22 -38 90 -92 14 -10 22 -23 17 -27 -4 -4 -25 7 -46 24 -22 18 -45
32 -51 32 -5 0 -29 19 -53 43 -91 91 -117 99 -117 37 0 -22 -4 -40 -10 -40 -5
0 -10 20 -10 45 0 43 -4 50 -62 106 -46 45 -68 59 -84 56 -19 -3 -22 1 -27 42
-3 25 -10 47 -16 49 -6 2 -11 9 -11 16 0 7 -9 21 -20 31 -30 27 -28 41 4 29z"/>
<path d="M6889 6592 c-24 -15 -61 -36 -81 -45 -68 -32 -59 -61 15 -45 90 18
116 20 151 8 42 -14 96 -56 96 -75 0 -11 -58 -62 -186 -163 -16 -12 -75 -55
-131 -95 -57 -39 -103 -76 -103 -82 0 -6 10 -21 23 -35 12 -14 40 -49 61 -77
21 -29 42 -53 46 -53 18 0 20 19 5 46 -8 16 -15 34 -15 40 0 37 352 303 385
291 19 -8 62 -68 70 -97 7 -31 -13 -57 -68 -85 -50 -26 -64 -42 -49 -57 8 -8
18 -9 34 -1 13 6 43 17 68 24 78 23 130 48 130 63 0 18 -34 78 -75 131 -39 51
-128 158 -152 182 -10 11 -45 49 -78 86 -37 42 -67 67 -80 67 -12 0 -41 -13
-66 -28z"/>
<path d="M694 6204 c-86 -111 -93 -141 -23 -101 l40 22 25 -30 c13 -16 24 -36
24 -42 0 -7 5 -13 10 -13 6 0 10 -5 10 -11 0 -6 12 -29 28 -52 29 -46 28 -44
102 -167 28 -47 67 -107 86 -134 42 -56 44 -55 95 39 18 33 40 71 50 84 28 36
10 48 -20 14 -31 -35 -67 -56 -82 -48 -15 10 -59 83 -59 100 0 17 33 77 78
140 22 32 38 45 50 41 9 -2 58 -7 107 -11 67 -4 94 -3 106 7 18 16 99 122 99
131 0 12 -38 8 -46 -4 -7 -13 -153 -7 -259 11 -33 5 -89 14 -125 19 -36 6 -94
15 -130 21 -148 25 -133 26 -166 -16z m256 -122 c30 -5 46 -12 48 -24 4 -20
-58 -118 -75 -118 -11 0 -103 136 -103 153 0 6 17 7 43 2 23 -3 62 -10 87 -13z"/>
<path d="M7275 6038 c-78 -26 -89 -32 -93 -49 -2 -11 15 -13 88 -10 99 3 131
-8 152 -54 13 -30 3 -45 -50 -73 -20 -11 -73 -38 -117 -62 -44 -23 -118 -63
-165 -88 -111 -59 -120 -65 -120 -78 0 -16 67 -146 85 -163 12 -13 15 -12 21
3 4 9 1 29 -5 43 -14 31 -2 48 56 78 21 10 45 24 53 31 8 7 80 46 160 87 105
54 150 73 162 66 8 -5 26 -34 38 -65 32 -78 23 -100 -57 -139 -44 -21 -63 -36
-63 -49 0 -20 22 -19 120 5 25 6 62 13 83 16 33 5 37 8 37 33 0 16 -4 32 -10
35 -5 3 -10 14 -10 23 0 23 -68 156 -138 272 -12 19 -31 53 -43 75 -12 22 -25
42 -29 45 -3 3 -9 13 -13 23 -9 23 -63 21 -142 -5z"/>
<path d="M444 5786 c-59 -125 -59 -164 0 -90 27 35 29 35 80 29 28 -4 55 -11
61 -16 5 -5 14 -9 21 -9 7 0 52 -23 101 -51 165 -95 215 -172 141 -217 -53
-32 -75 -35 -134 -16 -60 19 -89 10 -57 -18 31 -27 131 -77 167 -83 33 -7 36
-5 73 51 63 95 70 163 27 261 -12 27 -89 93 -108 93 -3 0 -31 15 -63 34 -32
18 -78 45 -103 58 -25 14 -62 35 -83 47 -65 37 -73 32 -123 -73z"/>
<path d="M7665 5511 c-3 -6 -4 -20 0 -30 9 -28 -11 -68 -42 -85 -16 -8 -77
-30 -137 -51 -60 -20 -128 -44 -150 -55 -80 -37 -136 -108 -136 -172 0 -64 49
-171 88 -195 13 -8 21 -27 25 -63 6 -48 17 -93 38 -147 14 -36 29 -27 29 17 0
65 12 73 205 125 33 10 76 21 95 25 100 23 166 44 178 54 10 10 7 29 -15 99
-29 89 -43 109 -43 58 0 -16 -8 -38 -17 -49 -16 -19 -126 -60 -243 -91 -25 -7
-59 -17 -76 -22 -17 -5 -37 -9 -46 -9 -31 0 -80 33 -105 71 -21 32 -24 45 -18
76 16 86 68 122 274 190 63 20 126 47 139 58 l25 22 -18 74 c-19 79 -38 118
-50 100z"/>
<path d="M230 5298 c-7 -24 -21 -67 -31 -97 -10 -30 -16 -58 -13 -62 9 -15 32
2 44 32 11 26 17 29 56 29 41 0 56 -4 132 -37 39 -17 40 -29 8 -125 -50 -148
-60 -163 -101 -147 -57 21 -167 50 -182 47 -17 -3 -28 -29 -43 -103 -5 -22
-12 -52 -16 -67 -5 -22 -3 -28 10 -28 9 0 20 8 23 18 20 52 38 53 219 6 233
-60 333 -79 345 -67 6 7 19 59 36 156 7 39 -10 34 -31 -9 l-17 -37 -57 6 c-31
4 -79 15 -107 25 -61 22 -61 24 -13 175 23 74 38 107 48 107 8 0 47 -12 85
-26 145 -54 153 -53 177 4 16 37 48 128 48 137 0 17 -29 0 -43 -25 -19 -32
-46 -38 -89 -21 -13 5 -43 14 -68 21 -45 12 -136 44 -175 61 -32 13 -209 69
-221 69 -6 0 -17 -19 -24 -42z"/>
<path d="M3113 5268 c-16 -21 -33 -93 -33 -137 0 -139 140 -176 258 -68 31 28
28 63 -6 85 -15 9 -61 43 -103 75 -77 58 -99 67 -116 45z"/>
<path d="M4755 5210 c-55 -38 -104 -76 -110 -85 -15 -25 49 -76 125 -99 52
-15 70 -16 100 -7 21 6 43 17 49 25 15 18 25 97 17 140 -7 37 -50 96 -69 96
-7 -1 -57 -32 -112 -70z"/>
<path d="M7897 4833 c-4 -3 -7 -19 -7 -35 0 -18 -10 -38 -25 -52 -26 -24 -40
-28 -170 -45 -180 -25 -224 -37 -284 -81 -38 -26 -71 -99 -71 -155 0 -49 29
-137 55 -165 13 -14 17 -46 21 -135 6 -151 17 -170 44 -74 15 53 41 66 150 72
139 8 331 26 363 33 27 6 29 8 23 48 -3 22 -9 67 -12 99 -8 71 -20 80 -34 27
-16 -61 -36 -67 -295 -91 -109 -10 -122 -10 -153 7 -37 20 -82 88 -82 123 0
43 43 101 95 129 49 25 87 33 288 60 129 18 141 33 125 156 -11 82 -16 95 -31
79z"/>
<path d="M205 4610 c-11 -5 -32 -11 -47 -14 -58 -13 -116 -87 -147 -187 -13
-43 -15 -162 -2 -187 5 -9 19 -39 32 -67 35 -73 93 -128 164 -155 49 -19 79
-23 166 -23 103 0 108 1 152 32 64 44 97 125 97 240 0 123 -30 202 -104 276
-41 41 -65 55 -121 73 -72 22 -154 28 -190 12z m169 -121 c91 -17 120 -32 140
-74 18 -37 23 -115 11 -158 -14 -49 -51 -111 -80 -131 -89 -65 -246 -61 -316
7 -33 32 -45 115 -29 196 18 93 57 135 150 160 48 13 55 13 124 0z"/>
<path d="M5505 4306 c-16 -7 -43 -18 -60 -24 -76 -31 -120 -58 -123 -77 -6
-49 97 -125 170 -125 38 0 52 5 76 29 36 37 52 95 41 153 -4 24 -8 46 -9 51 0
11 -61 7 -95 -7z"/>
<path d="M2414 4259 c-22 -44 -2 -110 49 -161 30 -31 44 -38 76 -38 58 0 107
25 141 72 45 61 41 83 -17 97 -94 24 -129 34 -166 47 -54 20 -65 18 -83 -17z"/>
<path d="M7962 3978 l-8 -33 -145 0 c-79 1 -199 5 -266 9 l-123 9 0 -91 c0
-95 9 -113 32 -64 13 26 16 27 88 27 70 0 75 -2 78 -22 6 -38 -29 -74 -103
-109 -70 -33 -102 -59 -123 -100 -16 -30 -27 -150 -15 -157 5 -3 23 13 40 37
33 47 70 78 149 124 l50 29 23 -33 c41 -59 69 -80 124 -94 59 -14 114 -3 149
28 28 24 68 98 68 126 0 14 5 28 10 31 6 4 10 68 10 161 0 129 -2 154 -15 154
-8 0 -18 -14 -23 -32z m-40 -161 c13 -19 -1 -108 -22 -143 -28 -44 -101 -61
-167 -36 -37 13 -48 23 -55 47 -12 43 1 133 21 146 22 14 212 3 223 -14z"/>
<path d="M125 3903 c-27 -7 -74 -52 -90 -88 -22 -48 -27 -123 -15 -220 6 -49
15 -121 20 -160 11 -94 19 -117 39 -113 11 3 15 13 13 33 -7 82 18 97 178 114
63 6 151 16 195 21 44 6 100 12 125 13 l45 2 3 51 c6 99 -24 194 -38 124 -10
-50 -23 -59 -98 -70 -40 -7 -79 -9 -86 -7 -8 3 -16 28 -19 59 -9 86 -26 151
-45 178 -39 55 -143 83 -227 63z m161 -142 c24 -15 33 -29 43 -76 19 -83 8
-91 -135 -100 l-111 -7 -6 38 c-21 127 5 163 118 164 41 0 70 -6 91 -19z"/>
<path d="M7366 3372 c-6 -11 -46 -172 -46 -188 0 -25 24 -14 45 19 20 31 23
32 85 32 60 -1 113 -9 230 -35 69 -16 151 -31 195 -37 l40 -5 14 63 c7 35 17
79 23 97 5 18 7 36 4 39 -12 12 -36 -8 -36 -30 0 -42 -20 -49 -97 -37 -108 18
-277 51 -425 84 -15 3 -29 3 -32 -2z"/>
<path d="M312 3282 c-17 -3 -22 -8 -18 -20 3 -9 10 -37 17 -62 32 -126 28
-120 77 -120 38 0 43 2 37 18 -3 9 -11 37 -17 62 -26 110 -43 131 -96 122z"/>
<path d="M7278 3013 c-15 -43 -29 -86 -33 -95 -12 -30 19 -21 43 12 18 23 30
30 57 30 20 0 43 -4 53 -9 9 -5 32 -16 50 -23 17 -7 32 -17 32 -21 0 -23 -33
-65 -57 -74 -57 -21 -100 -33 -114 -33 -36 0 -117 -49 -139 -84 -47 -77 -45
-148 3 -104 70 66 257 118 277 78 56 -113 67 -125 142 -140 102 -22 172 15
208 107 12 32 26 67 30 78 5 11 11 31 14 45 8 32 46 180 52 203 9 28 -23 20
-38 -10 -15 -32 -45 -40 -97 -25 -20 6 -56 16 -81 22 -55 15 -95 28 -135 45
-16 7 -55 21 -85 31 -30 10 -60 22 -65 26 -6 4 -29 10 -51 14 l-40 6 -26 -79z
m339 -144 c15 -6 39 -16 53 -21 14 -6 33 -14 42 -19 10 -5 24 -9 32 -9 27 0
35 -31 18 -68 -20 -40 -76 -72 -127 -72 -40 0 -102 37 -121 71 -12 24 -2 93
18 116 13 16 48 17 85 2z"/>
<path d="M532 2986 c-24 -7 -59 -24 -78 -40 l-36 -28 4 -72 c3 -45 14 -96 31
-141 31 -82 35 -132 10 -151 -10 -8 -44 -14 -79 -14 -50 0 -64 4 -80 23 -34
38 -49 78 -48 129 0 39 6 54 29 78 16 17 34 30 41 30 6 0 17 7 25 16 10 13 10
17 -2 25 -16 11 -114 3 -160 -13 -28 -10 -30 -14 -26 -47 14 -104 75 -237 137
-299 34 -34 50 -42 94 -47 103 -13 182 22 212 94 17 40 10 70 -45 194 -28 64
-31 126 -5 141 50 29 114 33 154 9 33 -19 70 -80 70 -115 0 -34 -26 -83 -56
-107 -13 -10 -24 -26 -24 -35 0 -19 3 -19 44 -7 17 5 50 15 74 22 38 11 42 15
42 43 0 49 -79 234 -115 270 -30 31 -102 57 -148 55 -12 -1 -41 -7 -65 -13z"/>
<path d="M5445 2960 c-16 -5 -62 -17 -102 -27 -39 -10 -75 -21 -78 -25 -12
-12 25 -105 53 -133 30 -30 83 -55 117 -55 32 0 82 30 94 57 17 38 22 116 8
153 -13 38 -36 46 -92 30z"/>
<path d="M2520 2871 c0 -84 57 -171 112 -171 72 0 166 74 193 153 16 46 21 44
-110 51 -55 3 -121 8 -147 12 l-48 7 0 -52z"/>
<path d="M894 2543 c12 -30 17 -98 9 -109 -4 -7 -28 -24 -53 -38 -51 -30 -305
-156 -314 -156 -19 0 -86 -53 -86 -68 0 -26 83 -186 99 -190 11 -4 12 1 6 19
-25 79 -18 96 55 136 74 41 307 166 372 200 15 8 30 18 33 23 9 14 -97 200
-113 200 -9 0 -12 -6 -8 -17z"/>
<path d="M7091 2528 c-8 -18 -22 -51 -32 -72 -18 -38 -25 -76 -14 -76 3 0 15
9 27 20 31 28 69 25 101 -8 15 -15 27 -32 27 -36 0 -14 -60 -130 -88 -171
l-28 -40 -102 -3 c-56 -1 -102 -6 -102 -10 0 -4 -18 -29 -40 -56 -44 -53 -50
-76 -20 -76 11 0 20 4 20 9 0 27 90 33 240 15 142 -17 285 -32 348 -38 26 -2
48 2 56 9 18 19 69 125 63 132 -3 3 -18 -4 -32 -15 -15 -12 -33 -18 -41 -15
-9 3 -65 80 -126 172 -139 209 -204 290 -233 291 -6 0 -16 -15 -24 -32z m212
-318 c26 -38 47 -74 47 -80 0 -5 -12 -10 -27 -10 -36 0 -153 21 -153 27 0 7
51 104 63 121 5 6 12 12 16 12 3 -1 27 -32 54 -70z"/>
<path d="M875 2096 c-61 -27 -145 -107 -174 -164 -35 -68 -25 -134 36 -260 44
-91 128 -148 263 -180 128 -30 320 92 366 232 15 43 15 57 4 99 -25 98 -95
196 -174 242 -101 59 -232 72 -321 31z m265 -78 c75 -52 120 -157 104 -245
-24 -128 -203 -250 -297 -202 -84 43 -149 180 -132 280 8 47 90 135 156 167
60 29 127 28 169 0z"/>
<path d="M6731 1913 c-66 -70 -69 -96 -10 -68 31 15 37 15 70 1 21 -9 61 -37
90 -64 l53 -49 -20 -31 c-10 -16 -43 -57 -72 -91 -38 -43 -58 -58 -70 -54 -9
4 -59 42 -111 84 l-94 78 -48 -52 c-27 -29 -49 -57 -49 -64 0 -16 17 -26 25
-13 3 5 18 10 31 10 19 0 52 -26 122 -94 131 -126 274 -256 283 -256 4 0 27
24 51 53 23 28 51 61 61 71 17 20 23 46 10 46 -5 0 -19 -9 -33 -20 -29 -23
-52 -25 -83 -8 -38 22 -97 81 -97 99 0 18 149 179 165 179 6 0 37 -25 70 -55
85 -78 95 -79 152 -15 69 76 77 90 65 102 -8 8 -20 3 -42 -16 -17 -14 -36 -26
-40 -26 -5 0 -24 13 -42 28 -18 15 -49 40 -68 54 -19 15 -93 74 -165 132 -71
58 -133 106 -136 106 -4 0 -34 -30 -68 -67z"/>
<path d="M1485 1588 c-16 -6 -41 -16 -55 -22 -14 -5 -95 -79 -179 -163 l-155
-154 79 -79 c44 -44 85 -80 92 -80 18 0 16 8 -7 37 -11 15 -20 41 -20 60 0 31
13 48 128 162 116 115 192 171 232 171 6 0 22 -12 35 -26 32 -34 34 -107 5
-164 -42 -82 -11 -82 64 2 74 81 73 100 -7 185 -62 66 -146 95 -212 71z"/>
<path d="M6361 1505 c-64 -65 -75 -98 -22 -67 39 22 77 5 97 -45 14 -34 14
-38 -3 -61 -11 -14 -45 -48 -75 -75 l-56 -49 -77 36 c-42 20 -88 36 -101 36
-21 0 -115 -61 -122 -80 -1 -4 16 -10 38 -14 53 -8 204 -76 320 -142 167 -96
219 -124 229 -124 17 0 121 100 121 117 0 11 -6 10 -32 -3 -31 -16 -32 -16
-50 6 -10 12 -21 34 -24 49 -3 14 -9 35 -14 46 -4 11 -18 54 -30 95 -12 41
-26 84 -31 95 -4 11 -17 49 -29 85 -32 99 -59 160 -69 160 -3 0 -35 -29 -70
-65z"/>
<path d="M1830 1352 c0 -5 7 -17 15 -28 8 -10 15 -28 15 -40 0 -19 -82 -128
-195 -259 -67 -77 -125 -153 -125 -163 0 -17 141 -132 161 -132 16 0 10 19
-17 45 -14 14 -24 30 -22 35 10 30 115 150 131 150 18 0 185 -109 207 -135 9
-10 -3 -34 -55 -109 -37 -53 -65 -102 -62 -109 7 -19 157 -117 179 -117 29 0
21 23 -17 48 -19 12 -35 30 -35 40 0 24 116 217 207 341 75 103 95 141 75 141
-5 0 -44 23 -86 50 -85 56 -113 57 -66 4 16 -19 30 -42 30 -52 0 -23 -107
-182 -123 -182 -9 0 -178 120 -206 146 -4 4 92 147 121 180 27 31 22 46 -29
89 -66 57 -103 77 -103 57z"/>
<path d="M5920 1163 c-59 -19 -144 -75 -187 -123 -41 -45 -65 -93 -71 -146 -6
-52 31 -129 85 -179 31 -29 46 -35 81 -35 49 0 82 15 169 76 34 24 71 44 82
44 25 0 48 -23 66 -67 29 -70 14 -112 -61 -164 -59 -40 -99 -39 -151 6 -23 19
-46 35 -53 35 -14 0 -5 -46 21 -108 11 -24 19 -50 19 -58 0 -27 27 -25 79 5
29 17 55 31 60 31 21 0 142 131 161 174 37 86 20 174 -46 243 -64 68 -88 63
-240 -46 -36 -26 -57 -34 -90 -34 -50 0 -70 13 -90 61 -26 63 -13 101 51 150
36 27 50 32 98 32 48 0 59 -4 85 -30 29 -29 52 -39 52 -22 0 5 -9 27 -20 50
-11 22 -20 45 -20 50 0 12 -47 62 -57 61 -4 0 -15 -3 -23 -6z"/>
<path d="M2480 881 c-125 -33 -141 -47 -217 -201 -31 -64 -38 -174 -14 -225
27 -58 152 -152 242 -183 146 -50 356 50 429 205 30 65 32 171 2 229 -54 106
-209 191 -352 192 -14 0 -54 -8 -90 -17z m182 -75 c45 -19 89 -60 127 -121 25
-39 31 -60 31 -103 0 -68 -45 -157 -104 -209 -37 -32 -45 -34 -91 -31 -93 8
-225 84 -250 145 -22 52 -18 88 18 179 53 133 94 169 183 160 28 -3 67 -12 86
-20z"/>
<path d="M5273 823 c-119 -55 -133 -76 -45 -67 l58 6 25 -38 c28 -43 89 -170
89 -184 0 -5 20 -57 45 -114 25 -58 45 -113 45 -121 0 -20 -84 -58 -110 -50
-24 8 -53 48 -71 98 -13 38 -29 46 -46 25 -11 -14 -1 -214 11 -226 8 -7 83 18
170 58 34 15 82 37 109 49 26 12 68 30 95 42 182 81 185 84 163 127 -5 9 -18
46 -28 82 -13 44 -25 66 -37 68 -16 3 -17 -3 -11 -66 l7 -70 -41 -41 c-57 -57
-84 -56 -112 7 -12 26 -32 71 -45 100 -13 29 -24 56 -24 61 0 16 -88 225 -114
271 -8 13 -18 26 -23 27 -4 1 -54 -19 -110 -44z"/>
<path d="M4885 685 c-101 -14 -143 -34 -222 -108 -113 -106 -147 -223 -109
-371 18 -70 31 -93 69 -125 41 -35 54 -43 97 -52 51 -12 204 13 259 41 54 27
133 100 174 159 28 42 30 49 30 140 0 64 -6 113 -17 146 -51 147 -124 191
-281 170z m93 -139 c15 -8 34 -22 43 -32 26 -30 59 -133 66 -205 5 -63 5 -67
-27 -103 -18 -20 -47 -43 -64 -50 -42 -17 -150 -26 -211 -16 -89 14 -145 105
-145 236 0 30 6 68 14 83 17 32 77 81 100 81 8 0 18 5 21 10 10 15 171 12 203
-4z"/>
<path d="M3218 675 c-10 -10 2 -35 18 -35 7 0 25 -5 39 -12 19 -9 25 -19 25
-44 0 -39 -26 -144 -39 -157 -5 -5 -25 -4 -47 2 -54 15 -125 14 -165 -3 -58
-24 -87 -71 -95 -154 -11 -100 31 -155 136 -180 59 -14 167 -29 258 -37 61 -5
72 -4 72 9 0 11 -10 16 -31 16 -64 0 -83 32 -60 106 5 16 14 61 21 99 6 39 19
104 27 145 22 109 32 162 32 187 1 24 -9 29 -91 43 -29 5 -62 12 -73 15 -11 3
-23 3 -27 0z m20 -308 c9 -7 11 -23 7 -51 -8 -46 -29 -132 -40 -158 -13 -32
-92 -16 -127 26 -40 48 -11 173 45 196 25 11 96 3 115 -13z"/>
<path d="M3752 535 c-16 -13 -35 -38 -42 -55 -26 -62 35 -140 110 -140 l30 0
0 -59 0 -58 -38 -7 c-52 -8 -89 -39 -103 -86 -10 -34 -9 -42 12 -72 34 -48 49
-57 93 -58 33 0 45 6 73 36 23 26 33 46 33 69 0 25 5 34 23 39 39 10 97 7 98
-6 1 -7 2 -20 3 -28 2 -8 3 -22 4 -31 1 -8 16 -30 33 -47 45 -46 95 -45 144 3
71 72 33 167 -75 185 l-35 5 0 55 0 55 34 3 c86 8 139 100 95 167 -19 28 -67
55 -100 55 -37 0 -92 -60 -100 -108 l-7 -42 -58 0 -59 0 0 38 c-1 41 -16 66
-57 94 -38 25 -76 23 -111 -7z"/>
</g>
</svg>
